G04 #@! TF.GenerationSoftware,KiCad,Pcbnew,(5.1.10)-1*
G04 #@! TF.CreationDate,2022-05-02T08:50:14+09:00*
G04 #@! TF.ProjectId,FV01,46563031-2e6b-4696-9361-645f70636258,Ver.1.0*
G04 #@! TF.SameCoordinates,Original*
G04 #@! TF.FileFunction,Copper,L1,Top*
G04 #@! TF.FilePolarity,Positive*
%FSLAX46Y46*%
G04 Gerber Fmt 4.6, Leading zero omitted, Abs format (unit mm)*
G04 Created by KiCad (PCBNEW (5.1.10)-1) date 2022-05-02 08:50:14*
%MOMM*%
%LPD*%
G01*
G04 APERTURE LIST*
G04 #@! TA.AperFunction,ComponentPad*
%ADD10O,1.700000X1.950000*%
G04 #@! TD*
G04 #@! TA.AperFunction,ComponentPad*
%ADD11C,1.600000*%
G04 #@! TD*
G04 #@! TA.AperFunction,ComponentPad*
%ADD12R,1.600000X1.600000*%
G04 #@! TD*
G04 #@! TA.AperFunction,ComponentPad*
%ADD13C,1.800000*%
G04 #@! TD*
G04 #@! TA.AperFunction,ComponentPad*
%ADD14O,1.700000X1.700000*%
G04 #@! TD*
G04 #@! TA.AperFunction,ComponentPad*
%ADD15R,1.700000X1.700000*%
G04 #@! TD*
G04 #@! TA.AperFunction,ComponentPad*
%ADD16O,1.600000X1.600000*%
G04 #@! TD*
G04 #@! TA.AperFunction,ComponentPad*
%ADD17O,1.800000X1.800000*%
G04 #@! TD*
G04 #@! TA.AperFunction,ComponentPad*
%ADD18R,1.800000X1.800000*%
G04 #@! TD*
G04 #@! TA.AperFunction,ComponentPad*
%ADD19O,2.000000X1.700000*%
G04 #@! TD*
G04 #@! TA.AperFunction,ComponentPad*
%ADD20C,1.400000*%
G04 #@! TD*
G04 #@! TA.AperFunction,ComponentPad*
%ADD21C,1.700000*%
G04 #@! TD*
G04 #@! TA.AperFunction,ViaPad*
%ADD22C,0.800000*%
G04 #@! TD*
G04 #@! TA.AperFunction,Conductor*
%ADD23C,0.500000*%
G04 #@! TD*
G04 #@! TA.AperFunction,Conductor*
%ADD24C,0.250000*%
G04 #@! TD*
G04 APERTURE END LIST*
D10*
G04 #@! TO.P,J3,4*
G04 #@! TO.N,GND*
X128390000Y-142240000D03*
G04 #@! TO.P,J3,3*
G04 #@! TO.N,/RIN*
X130890000Y-142240000D03*
G04 #@! TO.P,J3,2*
G04 #@! TO.N,GND*
X133390000Y-142240000D03*
G04 #@! TO.P,J3,1*
G04 #@! TO.N,/LIN*
G04 #@! TA.AperFunction,ComponentPad*
G36*
G01*
X136740000Y-141515000D02*
X136740000Y-142965000D01*
G75*
G02*
X136490000Y-143215000I-250000J0D01*
G01*
X135290000Y-143215000D01*
G75*
G02*
X135040000Y-142965000I0J250000D01*
G01*
X135040000Y-141515000D01*
G75*
G02*
X135290000Y-141265000I250000J0D01*
G01*
X136490000Y-141265000D01*
G75*
G02*
X136740000Y-141515000I0J-250000D01*
G01*
G37*
G04 #@! TD.AperFunction*
G04 #@! TD*
D11*
G04 #@! TO.P,C1,2*
G04 #@! TO.N,Net-(C1-Pad2)*
X137160000Y-107910000D03*
G04 #@! TO.P,C1,1*
G04 #@! TO.N,Net-(C1-Pad1)*
X137160000Y-105410000D03*
G04 #@! TD*
G04 #@! TO.P,C19,2*
G04 #@! TO.N,GND*
X129460000Y-80010000D03*
G04 #@! TO.P,C19,1*
G04 #@! TO.N,/FV-1/RFXOUT*
X124460000Y-80010000D03*
G04 #@! TD*
G04 #@! TO.P,C17,2*
G04 #@! TO.N,GND*
X129460000Y-96520000D03*
G04 #@! TO.P,C17,1*
G04 #@! TO.N,/FV-1/LFXOUT*
X124460000Y-96520000D03*
G04 #@! TD*
G04 #@! TO.P,C22,2*
G04 #@! TO.N,GND*
X170180000Y-71160000D03*
D12*
G04 #@! TO.P,C22,1*
G04 #@! TO.N,Net-(C22-Pad1)*
X170180000Y-73660000D03*
G04 #@! TD*
D11*
G04 #@! TO.P,C21,2*
G04 #@! TO.N,GND*
X167640000Y-81360000D03*
G04 #@! TO.P,C21,1*
G04 #@! TO.N,Net-(C21-Pad1)*
X167640000Y-86360000D03*
G04 #@! TD*
G04 #@! TO.P,C16,2*
G04 #@! TO.N,GND*
X167640000Y-93900000D03*
G04 #@! TO.P,C16,1*
G04 #@! TO.N,Net-(C16-Pad1)*
X167640000Y-88900000D03*
G04 #@! TD*
D13*
G04 #@! TO.P,RV5,1*
G04 #@! TO.N,GND*
X111760000Y-97790000D03*
G04 #@! TO.P,RV5,2*
G04 #@! TO.N,Net-(RV5-Pad2)*
X111760000Y-100290000D03*
G04 #@! TO.P,RV5,3*
G04 #@! TO.N,+3V3*
X111760000Y-102790000D03*
G04 #@! TD*
G04 #@! TO.P,RV4,1*
G04 #@! TO.N,GND*
X111760000Y-77470000D03*
G04 #@! TO.P,RV4,2*
G04 #@! TO.N,Net-(RV4-Pad2)*
X111760000Y-79970000D03*
G04 #@! TO.P,RV4,3*
G04 #@! TO.N,+3V3*
X111760000Y-82470000D03*
G04 #@! TD*
G04 #@! TO.P,RV3,1*
G04 #@! TO.N,GND*
X111760000Y-57150000D03*
G04 #@! TO.P,RV3,2*
G04 #@! TO.N,Net-(RV3-Pad2)*
X111760000Y-59650000D03*
G04 #@! TO.P,RV3,3*
G04 #@! TO.N,+3V3*
X111760000Y-62150000D03*
G04 #@! TD*
G04 #@! TO.P,RV2,4*
G04 #@! TO.N,Net-(C6-Pad1)*
X114260000Y-138430000D03*
G04 #@! TO.P,RV2,5*
G04 #@! TO.N,Net-(R12-Pad2)*
X114260000Y-140930000D03*
G04 #@! TO.P,RV2,6*
G04 #@! TO.N,Net-(JP3-Pad2)*
X114260000Y-143430000D03*
G04 #@! TO.P,RV2,1*
G04 #@! TO.N,Net-(C1-Pad1)*
X111760000Y-138430000D03*
G04 #@! TO.P,RV2,2*
G04 #@! TO.N,Net-(R5-Pad2)*
X111760000Y-140930000D03*
G04 #@! TO.P,RV2,3*
G04 #@! TO.N,Net-(JP2-Pad2)*
X111760000Y-143430000D03*
G04 #@! TD*
G04 #@! TO.P,RV1,4*
G04 #@! TO.N,GND*
X114260000Y-118110000D03*
G04 #@! TO.P,RV1,5*
G04 #@! TO.N,Net-(C9-Pad2)*
X114260000Y-120610000D03*
G04 #@! TO.P,RV1,6*
G04 #@! TO.N,/RIN*
X114260000Y-123110000D03*
G04 #@! TO.P,RV1,1*
G04 #@! TO.N,GND*
X111760000Y-118110000D03*
G04 #@! TO.P,RV1,2*
G04 #@! TO.N,Net-(C3-Pad2)*
X111760000Y-120610000D03*
G04 #@! TO.P,RV1,3*
G04 #@! TO.N,/LIN*
X111760000Y-123110000D03*
G04 #@! TD*
D10*
G04 #@! TO.P,J7,9*
G04 #@! TO.N,Net-(J7-Pad9)*
X141920000Y-54610000D03*
G04 #@! TO.P,J7,8*
G04 #@! TO.N,Net-(J7-Pad8)*
X139420000Y-54610000D03*
G04 #@! TO.P,J7,7*
G04 #@! TO.N,Net-(J7-Pad7)*
X136920000Y-54610000D03*
G04 #@! TO.P,J7,6*
G04 #@! TO.N,Net-(J7-Pad6)*
X134420000Y-54610000D03*
G04 #@! TO.P,J7,5*
G04 #@! TO.N,Net-(J7-Pad5)*
X131920000Y-54610000D03*
G04 #@! TO.P,J7,4*
G04 #@! TO.N,Net-(J7-Pad4)*
X129420000Y-54610000D03*
G04 #@! TO.P,J7,3*
G04 #@! TO.N,Net-(J7-Pad3)*
X126920000Y-54610000D03*
G04 #@! TO.P,J7,2*
G04 #@! TO.N,Net-(J7-Pad2)*
X124420000Y-54610000D03*
G04 #@! TO.P,J7,1*
G04 #@! TO.N,GND*
G04 #@! TA.AperFunction,ComponentPad*
G36*
G01*
X121070000Y-55335000D02*
X121070000Y-53885000D01*
G75*
G02*
X121320000Y-53635000I250000J0D01*
G01*
X122520000Y-53635000D01*
G75*
G02*
X122770000Y-53885000I0J-250000D01*
G01*
X122770000Y-55335000D01*
G75*
G02*
X122520000Y-55585000I-250000J0D01*
G01*
X121320000Y-55585000D01*
G75*
G02*
X121070000Y-55335000I0J250000D01*
G01*
G37*
G04 #@! TD.AperFunction*
G04 #@! TD*
D14*
G04 #@! TO.P,J6,3*
G04 #@! TO.N,/FV-1/SCL*
X162560000Y-59690000D03*
G04 #@! TO.P,J6,2*
G04 #@! TO.N,/FV-1/SDA*
X162560000Y-57150000D03*
D15*
G04 #@! TO.P,J6,1*
G04 #@! TO.N,GND*
X162560000Y-54610000D03*
G04 #@! TD*
D14*
G04 #@! TO.P,J5,2*
G04 #@! TO.N,GND*
X160020000Y-146050000D03*
D15*
G04 #@! TO.P,J5,1*
X160020000Y-143510000D03*
G04 #@! TD*
D14*
G04 #@! TO.P,J4,2*
G04 #@! TO.N,GND*
X152400000Y-57150000D03*
D15*
G04 #@! TO.P,J4,1*
X152400000Y-54610000D03*
G04 #@! TD*
D11*
G04 #@! TO.P,C6,2*
G04 #@! TO.N,Net-(C6-Pad2)*
X137160000Y-125690000D03*
G04 #@! TO.P,C6,1*
G04 #@! TO.N,Net-(C6-Pad1)*
X137160000Y-123190000D03*
G04 #@! TD*
G04 #@! TO.P,C5,2*
G04 #@! TO.N,GND*
X170180000Y-130770000D03*
D12*
G04 #@! TO.P,C5,1*
G04 #@! TO.N,+12V*
X170180000Y-128270000D03*
G04 #@! TD*
D16*
G04 #@! TO.P,U6,16*
G04 #@! TO.N,+3V3*
X123190000Y-67310000D03*
G04 #@! TO.P,U6,8*
G04 #@! TO.N,GND*
X140970000Y-74930000D03*
G04 #@! TO.P,U6,15*
G04 #@! TO.N,N/C*
X125730000Y-67310000D03*
G04 #@! TO.P,U6,7*
G04 #@! TO.N,Net-(U4-Pad11)*
X138430000Y-74930000D03*
G04 #@! TO.P,U6,14*
G04 #@! TO.N,N/C*
X128270000Y-67310000D03*
G04 #@! TO.P,U6,6*
G04 #@! TO.N,Net-(U4-Pad12)*
X135890000Y-74930000D03*
G04 #@! TO.P,U6,13*
G04 #@! TO.N,Net-(J7-Pad6)*
X130810000Y-67310000D03*
G04 #@! TO.P,U6,5*
G04 #@! TO.N,GND*
X133350000Y-74930000D03*
G04 #@! TO.P,U6,12*
G04 #@! TO.N,Net-(J7-Pad7)*
X133350000Y-67310000D03*
G04 #@! TO.P,U6,4*
G04 #@! TO.N,Net-(J7-Pad2)*
X130810000Y-74930000D03*
G04 #@! TO.P,U6,11*
G04 #@! TO.N,Net-(J7-Pad8)*
X135890000Y-67310000D03*
G04 #@! TO.P,U6,3*
G04 #@! TO.N,Net-(J7-Pad3)*
X128270000Y-74930000D03*
G04 #@! TO.P,U6,10*
G04 #@! TO.N,Net-(J7-Pad9)*
X138430000Y-67310000D03*
G04 #@! TO.P,U6,2*
G04 #@! TO.N,Net-(J7-Pad4)*
X125730000Y-74930000D03*
G04 #@! TO.P,U6,9*
G04 #@! TO.N,Net-(U4-Pad10)*
X140970000Y-67310000D03*
D12*
G04 #@! TO.P,U6,1*
G04 #@! TO.N,Net-(J7-Pad5)*
X123190000Y-74930000D03*
G04 #@! TD*
D16*
G04 #@! TO.P,U5,8*
G04 #@! TO.N,+3V3*
X167640000Y-62230000D03*
G04 #@! TO.P,U5,4*
G04 #@! TO.N,GND*
X175260000Y-54610000D03*
G04 #@! TO.P,U5,7*
X167640000Y-59690000D03*
G04 #@! TO.P,U5,3*
X175260000Y-57150000D03*
G04 #@! TO.P,U5,6*
G04 #@! TO.N,/FV-1/SCL*
X167640000Y-57150000D03*
G04 #@! TO.P,U5,2*
G04 #@! TO.N,GND*
X175260000Y-59690000D03*
G04 #@! TO.P,U5,5*
G04 #@! TO.N,/FV-1/SDA*
X167640000Y-54610000D03*
D12*
G04 #@! TO.P,U5,1*
G04 #@! TO.N,GND*
X175260000Y-62230000D03*
G04 #@! TD*
D16*
G04 #@! TO.P,U4,12*
G04 #@! TO.N,Net-(U4-Pad12)*
X147320000Y-73660000D03*
G04 #@! TO.P,U4,11*
G04 #@! TO.N,Net-(U4-Pad11)*
X147320000Y-71120000D03*
G04 #@! TO.P,U4,10*
G04 #@! TO.N,Net-(U4-Pad10)*
X147320000Y-68580000D03*
G04 #@! TO.P,U4,9*
G04 #@! TO.N,/FV-1/SDA*
X162560000Y-68580000D03*
G04 #@! TO.P,U4,8*
G04 #@! TO.N,/FV-1/SCL*
X162560000Y-71120000D03*
G04 #@! TO.P,U4,7*
G04 #@! TO.N,Net-(SW2-Pad2)*
X162560000Y-73660000D03*
G04 #@! TO.P,U4,18*
G04 #@! TO.N,Net-(C15-Pad2)*
X147320000Y-88900000D03*
G04 #@! TO.P,U4,6*
G04 #@! TO.N,+3V3*
X162560000Y-76200000D03*
G04 #@! TO.P,U4,17*
G04 #@! TO.N,Net-(C18-Pad2)*
X147320000Y-86360000D03*
G04 #@! TO.P,U4,5*
G04 #@! TO.N,+3V3*
X162560000Y-78740000D03*
G04 #@! TO.P,U4,16*
G04 #@! TO.N,Net-(RV5-Pad2)*
X147320000Y-83820000D03*
G04 #@! TO.P,U4,4*
G04 #@! TO.N,GND*
X162560000Y-81280000D03*
G04 #@! TO.P,U4,15*
G04 #@! TO.N,Net-(RV4-Pad2)*
X147320000Y-81280000D03*
G04 #@! TO.P,U4,3*
G04 #@! TO.N,Net-(C22-Pad1)*
X162560000Y-83820000D03*
G04 #@! TO.P,U4,14*
G04 #@! TO.N,Net-(RV3-Pad2)*
X147320000Y-78740000D03*
G04 #@! TO.P,U4,2*
G04 #@! TO.N,Net-(C21-Pad1)*
X162560000Y-86360000D03*
G04 #@! TO.P,U4,13*
G04 #@! TO.N,+3V3*
X147320000Y-76200000D03*
D12*
G04 #@! TO.P,U4,1*
G04 #@! TO.N,Net-(C16-Pad1)*
X162560000Y-88900000D03*
G04 #@! TD*
D17*
G04 #@! TO.P,U3,3*
G04 #@! TO.N,+3V3*
X175260000Y-101600000D03*
G04 #@! TO.P,U3,2*
G04 #@! TO.N,GND*
X177800000Y-101600000D03*
D18*
G04 #@! TO.P,U3,1*
G04 #@! TO.N,+5V*
X180340000Y-101600000D03*
G04 #@! TD*
D16*
G04 #@! TO.P,U2,8*
G04 #@! TO.N,+12V*
X147320000Y-123190000D03*
G04 #@! TO.P,U2,4*
G04 #@! TO.N,-12V*
X139700000Y-130810000D03*
G04 #@! TO.P,U2,7*
G04 #@! TO.N,Net-(R11-Pad2)*
X147320000Y-125730000D03*
G04 #@! TO.P,U2,3*
G04 #@! TO.N,GND*
X139700000Y-128270000D03*
G04 #@! TO.P,U2,6*
G04 #@! TO.N,Net-(R12-Pad1)*
X147320000Y-128270000D03*
G04 #@! TO.P,U2,2*
G04 #@! TO.N,Net-(C6-Pad2)*
X139700000Y-125730000D03*
G04 #@! TO.P,U2,5*
G04 #@! TO.N,GND*
X147320000Y-130810000D03*
D12*
G04 #@! TO.P,U2,1*
G04 #@! TO.N,Net-(C6-Pad1)*
X139700000Y-123190000D03*
G04 #@! TD*
D16*
G04 #@! TO.P,U1,8*
G04 #@! TO.N,+12V*
X147320000Y-105410000D03*
G04 #@! TO.P,U1,4*
G04 #@! TO.N,-12V*
X139700000Y-113030000D03*
G04 #@! TO.P,U1,7*
G04 #@! TO.N,Net-(R2-Pad1)*
X147320000Y-107950000D03*
G04 #@! TO.P,U1,3*
G04 #@! TO.N,GND*
X139700000Y-110490000D03*
G04 #@! TO.P,U1,6*
G04 #@! TO.N,Net-(R2-Pad2)*
X147320000Y-110490000D03*
G04 #@! TO.P,U1,2*
G04 #@! TO.N,Net-(C1-Pad2)*
X139700000Y-107950000D03*
G04 #@! TO.P,U1,5*
G04 #@! TO.N,GND*
X147320000Y-113030000D03*
D12*
G04 #@! TO.P,U1,1*
G04 #@! TO.N,Net-(C1-Pad1)*
X139700000Y-105410000D03*
G04 #@! TD*
D19*
G04 #@! TO.P,SW2,2*
G04 #@! TO.N,Net-(SW2-Pad2)*
X186690000Y-72350000D03*
G04 #@! TO.P,SW2,1*
G04 #@! TO.N,GND*
G04 #@! TA.AperFunction,ComponentPad*
G36*
G01*
X185940000Y-69000000D02*
X187440000Y-69000000D01*
G75*
G02*
X187690000Y-69250000I0J-250000D01*
G01*
X187690000Y-70450000D01*
G75*
G02*
X187440000Y-70700000I-250000J0D01*
G01*
X185940000Y-70700000D01*
G75*
G02*
X185690000Y-70450000I0J250000D01*
G01*
X185690000Y-69250000D01*
G75*
G02*
X185940000Y-69000000I250000J0D01*
G01*
G37*
G04 #@! TD.AperFunction*
G04 #@! TD*
D10*
G04 #@! TO.P,SW1,3*
G04 #@! TO.N,Net-(C6-Pad1)*
X158670000Y-99060000D03*
G04 #@! TO.P,SW1,2*
G04 #@! TO.N,/FV-1/RFXIN*
X156170000Y-99060000D03*
G04 #@! TO.P,SW1,1*
G04 #@! TO.N,Net-(C1-Pad1)*
G04 #@! TA.AperFunction,ComponentPad*
G36*
G01*
X152820000Y-99785000D02*
X152820000Y-98335000D01*
G75*
G02*
X153070000Y-98085000I250000J0D01*
G01*
X154270000Y-98085000D01*
G75*
G02*
X154520000Y-98335000I0J-250000D01*
G01*
X154520000Y-99785000D01*
G75*
G02*
X154270000Y-100035000I-250000J0D01*
G01*
X153070000Y-100035000D01*
G75*
G02*
X152820000Y-99785000I0J250000D01*
G01*
G37*
G04 #@! TD.AperFunction*
G04 #@! TD*
D16*
G04 #@! TO.P,RN1,9*
G04 #@! TO.N,Net-(J7-Pad9)*
X142240000Y-62230000D03*
G04 #@! TO.P,RN1,8*
G04 #@! TO.N,Net-(J7-Pad8)*
X139700000Y-62230000D03*
G04 #@! TO.P,RN1,7*
G04 #@! TO.N,Net-(J7-Pad7)*
X137160000Y-62230000D03*
G04 #@! TO.P,RN1,6*
G04 #@! TO.N,Net-(J7-Pad6)*
X134620000Y-62230000D03*
G04 #@! TO.P,RN1,5*
G04 #@! TO.N,Net-(J7-Pad5)*
X132080000Y-62230000D03*
G04 #@! TO.P,RN1,4*
G04 #@! TO.N,Net-(J7-Pad4)*
X129540000Y-62230000D03*
G04 #@! TO.P,RN1,3*
G04 #@! TO.N,Net-(J7-Pad3)*
X127000000Y-62230000D03*
G04 #@! TO.P,RN1,2*
G04 #@! TO.N,Net-(J7-Pad2)*
X124460000Y-62230000D03*
D12*
G04 #@! TO.P,RN1,1*
G04 #@! TO.N,+3V3*
X121920000Y-62230000D03*
G04 #@! TD*
D16*
G04 #@! TO.P,R19,2*
G04 #@! TO.N,Net-(C20-Pad1)*
X181610000Y-86360000D03*
D11*
G04 #@! TO.P,R19,1*
G04 #@! TO.N,Net-(C21-Pad1)*
X171450000Y-86360000D03*
G04 #@! TD*
D16*
G04 #@! TO.P,R18,2*
G04 #@! TO.N,Net-(C18-Pad1)*
X142240000Y-80010000D03*
D11*
G04 #@! TO.P,R18,1*
G04 #@! TO.N,GND*
X132080000Y-80010000D03*
G04 #@! TD*
D16*
G04 #@! TO.P,R17,2*
G04 #@! TO.N,Net-(C18-Pad1)*
X134620000Y-85090000D03*
D11*
G04 #@! TO.P,R17,1*
G04 #@! TO.N,/FV-1/RFXOUT*
X124460000Y-85090000D03*
G04 #@! TD*
D16*
G04 #@! TO.P,R16,2*
G04 #@! TO.N,Net-(C15-Pad1)*
X142240000Y-96520000D03*
D11*
G04 #@! TO.P,R16,1*
G04 #@! TO.N,GND*
X132080000Y-96520000D03*
G04 #@! TD*
D16*
G04 #@! TO.P,R15,2*
G04 #@! TO.N,Net-(C15-Pad1)*
X134620000Y-91440000D03*
D11*
G04 #@! TO.P,R15,1*
G04 #@! TO.N,/FV-1/LFXOUT*
X124460000Y-91440000D03*
G04 #@! TD*
D16*
G04 #@! TO.P,R14,2*
G04 #@! TO.N,Net-(C14-Pad1)*
X181610000Y-90170000D03*
D11*
G04 #@! TO.P,R14,1*
G04 #@! TO.N,Net-(C16-Pad1)*
X171450000Y-90170000D03*
G04 #@! TD*
D16*
G04 #@! TO.P,R13,2*
G04 #@! TO.N,Net-(D3-Pad2)*
X172720000Y-107950000D03*
D11*
G04 #@! TO.P,R13,1*
G04 #@! TO.N,+3V3*
X182880000Y-107950000D03*
G04 #@! TD*
D16*
G04 #@! TO.P,R12,2*
G04 #@! TO.N,Net-(R12-Pad2)*
X160020000Y-128270000D03*
D11*
G04 #@! TO.P,R12,1*
G04 #@! TO.N,Net-(R12-Pad1)*
X149860000Y-128270000D03*
G04 #@! TD*
D16*
G04 #@! TO.P,R11,2*
G04 #@! TO.N,Net-(R11-Pad2)*
X149860000Y-124460000D03*
D11*
G04 #@! TO.P,R11,1*
G04 #@! TO.N,/ROUT*
X160020000Y-124460000D03*
G04 #@! TD*
D16*
G04 #@! TO.P,R10,2*
G04 #@! TO.N,Net-(C9-Pad1)*
X124460000Y-125730000D03*
D11*
G04 #@! TO.P,R10,1*
G04 #@! TO.N,Net-(C6-Pad2)*
X134620000Y-125730000D03*
G04 #@! TD*
D16*
G04 #@! TO.P,R9,2*
G04 #@! TO.N,Net-(R12-Pad1)*
X149860000Y-132080000D03*
D11*
G04 #@! TO.P,R9,1*
G04 #@! TO.N,Net-(R11-Pad2)*
X160020000Y-132080000D03*
G04 #@! TD*
D16*
G04 #@! TO.P,R8,2*
G04 #@! TO.N,-12V*
X182880000Y-146050000D03*
D11*
G04 #@! TO.P,R8,1*
G04 #@! TO.N,Net-(D2-Pad1)*
X172720000Y-146050000D03*
G04 #@! TD*
D16*
G04 #@! TO.P,R7,2*
G04 #@! TO.N,Net-(C6-Pad2)*
X134620000Y-129540000D03*
D11*
G04 #@! TO.P,R7,1*
G04 #@! TO.N,Net-(C6-Pad1)*
X124460000Y-129540000D03*
G04 #@! TD*
D16*
G04 #@! TO.P,R6,2*
G04 #@! TO.N,Net-(D1-Pad2)*
X172720000Y-113030000D03*
D11*
G04 #@! TO.P,R6,1*
G04 #@! TO.N,+12V*
X182880000Y-113030000D03*
G04 #@! TD*
D16*
G04 #@! TO.P,R5,2*
G04 #@! TO.N,Net-(R5-Pad2)*
X160020000Y-110490000D03*
D11*
G04 #@! TO.P,R5,1*
G04 #@! TO.N,Net-(R2-Pad2)*
X149860000Y-110490000D03*
G04 #@! TD*
D16*
G04 #@! TO.P,R4,2*
G04 #@! TO.N,Net-(R2-Pad1)*
X149860000Y-106680000D03*
D11*
G04 #@! TO.P,R4,1*
G04 #@! TO.N,/LOUT*
X160020000Y-106680000D03*
G04 #@! TD*
D16*
G04 #@! TO.P,R3,2*
G04 #@! TO.N,Net-(C3-Pad1)*
X124460000Y-107950000D03*
D11*
G04 #@! TO.P,R3,1*
G04 #@! TO.N,Net-(C1-Pad2)*
X134620000Y-107950000D03*
G04 #@! TD*
D16*
G04 #@! TO.P,R2,2*
G04 #@! TO.N,Net-(R2-Pad2)*
X149860000Y-114300000D03*
D11*
G04 #@! TO.P,R2,1*
G04 #@! TO.N,Net-(R2-Pad1)*
X160020000Y-114300000D03*
G04 #@! TD*
D16*
G04 #@! TO.P,R1,2*
G04 #@! TO.N,Net-(C1-Pad2)*
X134620000Y-111760000D03*
D11*
G04 #@! TO.P,R1,1*
G04 #@! TO.N,Net-(C1-Pad1)*
X124460000Y-111760000D03*
G04 #@! TD*
D20*
G04 #@! TO.P,JP3,2*
G04 #@! TO.N,Net-(JP3-Pad2)*
X118110000Y-80010000D03*
G04 #@! TO.P,JP3,1*
G04 #@! TO.N,/FV-1/RFXOUT*
X120650000Y-80010000D03*
G04 #@! TD*
G04 #@! TO.P,JP2,2*
G04 #@! TO.N,Net-(JP2-Pad2)*
X118110000Y-96520000D03*
G04 #@! TO.P,JP2,1*
G04 #@! TO.N,/FV-1/LFXOUT*
X120650000Y-96520000D03*
G04 #@! TD*
G04 #@! TO.P,JP1,2*
G04 #@! TO.N,/FV-1/LFXIN*
X147320000Y-95250000D03*
G04 #@! TO.P,JP1,1*
G04 #@! TO.N,Net-(C1-Pad1)*
X147320000Y-97790000D03*
G04 #@! TD*
D10*
G04 #@! TO.P,J2,4*
G04 #@! TO.N,GND*
X144900000Y-142240000D03*
G04 #@! TO.P,J2,3*
G04 #@! TO.N,/ROUT*
X147400000Y-142240000D03*
G04 #@! TO.P,J2,2*
G04 #@! TO.N,GND*
X149900000Y-142240000D03*
G04 #@! TO.P,J2,1*
G04 #@! TO.N,/LOUT*
G04 #@! TA.AperFunction,ComponentPad*
G36*
G01*
X153250000Y-141515000D02*
X153250000Y-142965000D01*
G75*
G02*
X153000000Y-143215000I-250000J0D01*
G01*
X151800000Y-143215000D01*
G75*
G02*
X151550000Y-142965000I0J250000D01*
G01*
X151550000Y-141515000D01*
G75*
G02*
X151800000Y-141265000I250000J0D01*
G01*
X153000000Y-141265000D01*
G75*
G02*
X153250000Y-141515000I0J-250000D01*
G01*
G37*
G04 #@! TD.AperFunction*
G04 #@! TD*
D21*
G04 #@! TO.P,J1,16*
G04 #@! TO.N,N/C*
X177800000Y-120650000D03*
G04 #@! TO.P,J1,14*
X177800000Y-123190000D03*
G04 #@! TO.P,J1,12*
G04 #@! TO.N,+5V*
X177800000Y-125730000D03*
G04 #@! TO.P,J1,10*
G04 #@! TO.N,+12V*
X177800000Y-128270000D03*
G04 #@! TO.P,J1,8*
G04 #@! TO.N,GND*
X177800000Y-130810000D03*
G04 #@! TO.P,J1,6*
X177800000Y-133350000D03*
G04 #@! TO.P,J1,4*
X177800000Y-135890000D03*
G04 #@! TO.P,J1,2*
G04 #@! TO.N,-12V*
X177800000Y-138430000D03*
G04 #@! TO.P,J1,15*
G04 #@! TO.N,N/C*
X180340000Y-120650000D03*
G04 #@! TO.P,J1,13*
X180340000Y-123190000D03*
G04 #@! TO.P,J1,11*
G04 #@! TO.N,+5V*
X180340000Y-125730000D03*
G04 #@! TO.P,J1,9*
G04 #@! TO.N,+12V*
X180340000Y-128270000D03*
G04 #@! TO.P,J1,7*
G04 #@! TO.N,GND*
X180340000Y-130810000D03*
G04 #@! TO.P,J1,5*
X180340000Y-133350000D03*
G04 #@! TO.P,J1,3*
X180340000Y-135890000D03*
G04 #@! TO.P,J1,1*
G04 #@! TO.N,-12V*
G04 #@! TA.AperFunction,ComponentPad*
G36*
G01*
X181190000Y-137830000D02*
X181190000Y-139030000D01*
G75*
G02*
X180940000Y-139280000I-250000J0D01*
G01*
X179740000Y-139280000D01*
G75*
G02*
X179490000Y-139030000I0J250000D01*
G01*
X179490000Y-137830000D01*
G75*
G02*
X179740000Y-137580000I250000J0D01*
G01*
X180940000Y-137580000D01*
G75*
G02*
X181190000Y-137830000I0J-250000D01*
G01*
G37*
G04 #@! TD.AperFunction*
G04 #@! TD*
D16*
G04 #@! TO.P,D7,2*
G04 #@! TO.N,GND*
X181610000Y-82550000D03*
D12*
G04 #@! TO.P,D7,1*
G04 #@! TO.N,Net-(C21-Pad1)*
X171450000Y-82550000D03*
G04 #@! TD*
D16*
G04 #@! TO.P,D6,2*
G04 #@! TO.N,Net-(C21-Pad1)*
X171450000Y-78740000D03*
D12*
G04 #@! TO.P,D6,1*
G04 #@! TO.N,+3V3*
X181610000Y-78740000D03*
G04 #@! TD*
D16*
G04 #@! TO.P,D5,2*
G04 #@! TO.N,GND*
X181610000Y-97790000D03*
D12*
G04 #@! TO.P,D5,1*
G04 #@! TO.N,Net-(C16-Pad1)*
X171450000Y-97790000D03*
G04 #@! TD*
D16*
G04 #@! TO.P,D4,2*
G04 #@! TO.N,Net-(C16-Pad1)*
X171450000Y-93980000D03*
D12*
G04 #@! TO.P,D4,1*
G04 #@! TO.N,+3V3*
X181610000Y-93980000D03*
G04 #@! TD*
D13*
G04 #@! TO.P,D3,2*
G04 #@! TO.N,Net-(D3-Pad2)*
X170180000Y-107950000D03*
D18*
G04 #@! TO.P,D3,1*
G04 #@! TO.N,GND*
X167640000Y-107950000D03*
G04 #@! TD*
D13*
G04 #@! TO.P,D2,2*
G04 #@! TO.N,GND*
X167640000Y-146050000D03*
D18*
G04 #@! TO.P,D2,1*
G04 #@! TO.N,Net-(D2-Pad1)*
X170180000Y-146050000D03*
G04 #@! TD*
D13*
G04 #@! TO.P,D1,2*
G04 #@! TO.N,Net-(D1-Pad2)*
X170180000Y-113030000D03*
D18*
G04 #@! TO.P,D1,1*
G04 #@! TO.N,GND*
X167640000Y-113030000D03*
G04 #@! TD*
D11*
G04 #@! TO.P,C24,2*
G04 #@! TO.N,GND*
X119380000Y-69810000D03*
G04 #@! TO.P,C24,1*
G04 #@! TO.N,+3V3*
X119380000Y-67310000D03*
G04 #@! TD*
G04 #@! TO.P,C23,2*
G04 #@! TO.N,GND*
X170140000Y-66040000D03*
G04 #@! TO.P,C23,1*
G04 #@! TO.N,+3V3*
X167640000Y-66040000D03*
G04 #@! TD*
G04 #@! TO.P,C20,2*
G04 #@! TO.N,/FV-1/RFXIN*
X186690000Y-81360000D03*
G04 #@! TO.P,C20,1*
G04 #@! TO.N,Net-(C20-Pad1)*
X186690000Y-86360000D03*
G04 #@! TD*
G04 #@! TO.P,C18,2*
G04 #@! TO.N,Net-(C18-Pad2)*
X142160000Y-85090000D03*
G04 #@! TO.P,C18,1*
G04 #@! TO.N,Net-(C18-Pad1)*
X137160000Y-85090000D03*
G04 #@! TD*
G04 #@! TO.P,C15,2*
G04 #@! TO.N,Net-(C15-Pad2)*
X142160000Y-91440000D03*
G04 #@! TO.P,C15,1*
G04 #@! TO.N,Net-(C15-Pad1)*
X137160000Y-91440000D03*
G04 #@! TD*
G04 #@! TO.P,C14,2*
G04 #@! TO.N,/FV-1/LFXIN*
X186690000Y-95170000D03*
G04 #@! TO.P,C14,1*
G04 #@! TO.N,Net-(C14-Pad1)*
X186690000Y-90170000D03*
G04 #@! TD*
G04 #@! TO.P,C13,2*
G04 #@! TO.N,GND*
X165140000Y-100330000D03*
D12*
G04 #@! TO.P,C13,1*
G04 #@! TO.N,+3V3*
X167640000Y-100330000D03*
G04 #@! TD*
D11*
G04 #@! TO.P,C12,2*
G04 #@! TO.N,GND*
X184150000Y-104140000D03*
G04 #@! TO.P,C12,1*
G04 #@! TO.N,+5V*
X184150000Y-101640000D03*
G04 #@! TD*
G04 #@! TO.P,C11,2*
G04 #@! TO.N,GND*
X170180000Y-119420000D03*
D12*
G04 #@! TO.P,C11,1*
G04 #@! TO.N,+5V*
X170180000Y-121920000D03*
G04 #@! TD*
D11*
G04 #@! TO.P,C10,2*
G04 #@! TO.N,-12V*
X139740000Y-134620000D03*
G04 #@! TO.P,C10,1*
G04 #@! TO.N,GND*
X142240000Y-134620000D03*
G04 #@! TD*
G04 #@! TO.P,C9,2*
G04 #@! TO.N,Net-(C9-Pad2)*
X120650000Y-120730000D03*
G04 #@! TO.P,C9,1*
G04 #@! TO.N,Net-(C9-Pad1)*
X120650000Y-125730000D03*
G04 #@! TD*
G04 #@! TO.P,C8,2*
G04 #@! TO.N,+12V*
X147280000Y-119380000D03*
G04 #@! TO.P,C8,1*
G04 #@! TO.N,GND*
X144780000Y-119380000D03*
G04 #@! TD*
G04 #@! TO.P,C7,2*
G04 #@! TO.N,-12V*
X170180000Y-138390000D03*
D12*
G04 #@! TO.P,C7,1*
G04 #@! TO.N,GND*
X170180000Y-135890000D03*
G04 #@! TD*
D11*
G04 #@! TO.P,C4,2*
G04 #@! TO.N,-12V*
X139740000Y-116840000D03*
G04 #@! TO.P,C4,1*
G04 #@! TO.N,GND*
X142240000Y-116840000D03*
G04 #@! TD*
G04 #@! TO.P,C3,2*
G04 #@! TO.N,Net-(C3-Pad2)*
X120650000Y-102950000D03*
G04 #@! TO.P,C3,1*
G04 #@! TO.N,Net-(C3-Pad1)*
X120650000Y-107950000D03*
G04 #@! TD*
G04 #@! TO.P,C2,2*
G04 #@! TO.N,+12V*
X147280000Y-101600000D03*
G04 #@! TO.P,C2,1*
G04 #@! TO.N,GND*
X144780000Y-101600000D03*
G04 #@! TD*
D22*
G04 #@! TO.N,/FV-1/RFXIN*
X179070000Y-81280000D03*
G04 #@! TO.N,Net-(R12-Pad2)*
X162820011Y-128270000D03*
G04 #@! TD*
D23*
G04 #@! TO.N,Net-(C1-Pad2)*
X134620000Y-107950000D02*
X134620000Y-111760000D01*
X137120000Y-107950000D02*
X137160000Y-107910000D01*
X134620000Y-107950000D02*
X137120000Y-107950000D01*
X139660000Y-107910000D02*
X139700000Y-107950000D01*
X137160000Y-107910000D02*
X139660000Y-107910000D01*
G04 #@! TO.N,Net-(C1-Pad1)*
X139700000Y-105410000D02*
X137160000Y-105410000D01*
X130810000Y-105410000D02*
X137160000Y-105410000D01*
X124460000Y-111760000D02*
X130810000Y-105410000D01*
X146020000Y-97790000D02*
X147320000Y-97790000D01*
X139700000Y-104110000D02*
X146020000Y-97790000D01*
X139700000Y-105410000D02*
X139700000Y-104110000D01*
X152400000Y-97790000D02*
X153670000Y-99060000D01*
X147320000Y-97790000D02*
X152400000Y-97790000D01*
G04 #@! TO.N,Net-(C3-Pad1)*
X124460000Y-107950000D02*
X120650000Y-107950000D01*
G04 #@! TO.N,Net-(C9-Pad1)*
X120650000Y-125730000D02*
X124460000Y-125730000D01*
G04 #@! TO.N,/FV-1/LFXIN*
X156823491Y-95250000D02*
X147320000Y-95250000D01*
X160613492Y-99040001D02*
X156823491Y-95250000D01*
X182819999Y-99040001D02*
X160613492Y-99040001D01*
X186690000Y-95170000D02*
X182819999Y-99040001D01*
G04 #@! TO.N,Net-(C14-Pad1)*
X181610000Y-90170000D02*
X186690000Y-90170000D01*
G04 #@! TO.N,Net-(C15-Pad2)*
X144780000Y-91440000D02*
X147320000Y-88900000D01*
X142160000Y-91440000D02*
X144780000Y-91440000D01*
G04 #@! TO.N,Net-(C15-Pad1)*
X134620000Y-91440000D02*
X137160000Y-91440000D01*
X137160000Y-91440000D02*
X142240000Y-96520000D01*
G04 #@! TO.N,Net-(C16-Pad1)*
X162560000Y-88900000D02*
X167640000Y-88900000D01*
X170180000Y-88900000D02*
X171450000Y-90170000D01*
X167640000Y-88900000D02*
X170180000Y-88900000D01*
X171450000Y-90170000D02*
X171450000Y-93980000D01*
X171450000Y-93980000D02*
X171450000Y-97790000D01*
G04 #@! TO.N,/FV-1/LFXOUT*
X124460000Y-91440000D02*
X124460000Y-96520000D01*
X120650000Y-96520000D02*
X124460000Y-96520000D01*
G04 #@! TO.N,Net-(C18-Pad2)*
X146050000Y-85090000D02*
X147320000Y-86360000D01*
X142160000Y-85090000D02*
X146050000Y-85090000D01*
G04 #@! TO.N,Net-(C18-Pad1)*
X134620000Y-85090000D02*
X137160000Y-85090000D01*
X137160000Y-85090000D02*
X142240000Y-80010000D01*
G04 #@! TO.N,/FV-1/RFXOUT*
X124460000Y-80010000D02*
X124460000Y-85090000D01*
X120650000Y-80010000D02*
X124460000Y-80010000D01*
G04 #@! TO.N,/FV-1/RFXIN*
X186610000Y-81280000D02*
X186690000Y-81360000D01*
X179070000Y-81280000D02*
X186610000Y-81280000D01*
G04 #@! TO.N,Net-(C20-Pad1)*
X181610000Y-86360000D02*
X186690000Y-86360000D01*
G04 #@! TO.N,Net-(C21-Pad1)*
X162560000Y-86360000D02*
X167640000Y-86360000D01*
X167640000Y-86360000D02*
X171450000Y-86360000D01*
X171450000Y-82550000D02*
X171450000Y-86360000D01*
X171450000Y-78740000D02*
X171450000Y-82550000D01*
G04 #@! TO.N,Net-(C22-Pad1)*
X170180000Y-76200000D02*
X170180000Y-73660000D01*
X162560000Y-83820000D02*
X170180000Y-76200000D01*
G04 #@! TO.N,Net-(D1-Pad2)*
X170180000Y-113030000D02*
X172720000Y-113030000D01*
G04 #@! TO.N,Net-(D2-Pad1)*
X170180000Y-146050000D02*
X172720000Y-146050000D01*
G04 #@! TO.N,Net-(D3-Pad2)*
X170180000Y-107950000D02*
X172720000Y-107950000D01*
G04 #@! TO.N,/RIN*
X114260000Y-125610000D02*
X130890000Y-142240000D01*
X114260000Y-123110000D02*
X114260000Y-125610000D01*
G04 #@! TO.N,/LIN*
X134464990Y-143665010D02*
X135890000Y-142240000D01*
X111760000Y-127573491D02*
X127851519Y-143665010D01*
X127851519Y-143665010D02*
X134464990Y-143665010D01*
X111760000Y-123110000D02*
X111760000Y-127573491D01*
G04 #@! TO.N,/ROUT*
X161270001Y-125710001D02*
X160020000Y-124460000D01*
X160620001Y-133330001D02*
X161270001Y-132680001D01*
X161270001Y-132680001D02*
X161270001Y-125710001D01*
X156309999Y-133330001D02*
X160620001Y-133330001D01*
X147400000Y-142240000D02*
X156309999Y-133330001D01*
G04 #@! TO.N,/LOUT*
X161970011Y-108630011D02*
X160020000Y-106680000D01*
X161970011Y-133519989D02*
X161970011Y-108630011D01*
X153250000Y-142240000D02*
X161970011Y-133519989D01*
X152400000Y-142240000D02*
X153250000Y-142240000D01*
D24*
G04 #@! TO.N,/FV-1/SDA*
X165100000Y-57150000D02*
X167640000Y-54610000D01*
X162560000Y-57150000D02*
X165100000Y-57150000D01*
X161384999Y-58325001D02*
X162560000Y-57150000D01*
X161384999Y-67404999D02*
X161384999Y-58325001D01*
X162560000Y-68580000D02*
X161384999Y-67404999D01*
G04 #@! TO.N,/FV-1/SCL*
X165100000Y-59690000D02*
X167640000Y-57150000D01*
X162560000Y-59690000D02*
X165100000Y-59690000D01*
X163685001Y-60815001D02*
X162560000Y-59690000D01*
X163685001Y-69994999D02*
X163685001Y-60815001D01*
X162560000Y-71120000D02*
X163685001Y-69994999D01*
D23*
G04 #@! TO.N,Net-(JP2-Pad2)*
X118029999Y-96439999D02*
X118110000Y-96520000D01*
X111111999Y-96439999D02*
X118029999Y-96439999D01*
X109709989Y-97842009D02*
X111111999Y-96439999D01*
X109709989Y-141379989D02*
X109709989Y-97842009D01*
X111760000Y-143430000D02*
X109709989Y-141379989D01*
G04 #@! TO.N,Net-(JP3-Pad2)*
X114219999Y-76119999D02*
X118110000Y-80010000D01*
X111111999Y-76119999D02*
X114219999Y-76119999D01*
X109009979Y-78222019D02*
X111111999Y-76119999D01*
X109009979Y-142677981D02*
X109009979Y-78222019D01*
X111111999Y-144780001D02*
X109009979Y-142677981D01*
X112909999Y-144780001D02*
X111111999Y-144780001D01*
X114260000Y-143430000D02*
X112909999Y-144780001D01*
G04 #@! TO.N,Net-(R2-Pad2)*
X147320000Y-110490000D02*
X149860000Y-110490000D01*
X149860000Y-110490000D02*
X149860000Y-114300000D01*
G04 #@! TO.N,Net-(R2-Pad1)*
X148590000Y-107950000D02*
X149860000Y-106680000D01*
X147320000Y-107950000D02*
X148590000Y-107950000D01*
X152400000Y-106680000D02*
X160020000Y-114300000D01*
X149860000Y-106680000D02*
X152400000Y-106680000D01*
G04 #@! TO.N,Net-(R5-Pad2)*
X161270001Y-114900001D02*
X161270001Y-111740001D01*
X153109997Y-115550001D02*
X160620001Y-115550001D01*
X146069999Y-122589999D02*
X153109997Y-115550001D01*
X161270001Y-111740001D02*
X160020000Y-110490000D01*
X146069999Y-134374967D02*
X146069999Y-122589999D01*
X136079946Y-144365020D02*
X146069999Y-134374967D01*
X127561566Y-144365020D02*
X136079946Y-144365020D01*
X111111999Y-137079999D02*
X120276546Y-137079999D01*
X120276546Y-137079999D02*
X127561566Y-144365020D01*
X110409999Y-137781999D02*
X111111999Y-137079999D01*
X110409999Y-139579999D02*
X110409999Y-137781999D01*
X160620001Y-115550001D02*
X161270001Y-114900001D01*
X111760000Y-140930000D02*
X110409999Y-139579999D01*
G04 #@! TO.N,Net-(R12-Pad1)*
X147320000Y-128270000D02*
X149860000Y-128270000D01*
X149860000Y-128270000D02*
X149860000Y-132080000D01*
G04 #@! TO.N,Net-(R11-Pad2)*
X148590000Y-125730000D02*
X149860000Y-124460000D01*
X147320000Y-125730000D02*
X148590000Y-125730000D01*
X152400000Y-124460000D02*
X160020000Y-132080000D01*
X149860000Y-124460000D02*
X152400000Y-124460000D01*
G04 #@! TO.N,Net-(R12-Pad2)*
X162670021Y-128419990D02*
X162820011Y-128270000D01*
X162670021Y-134284945D02*
X162670021Y-128419990D01*
X151889936Y-145065030D02*
X162670021Y-134284945D01*
X127271613Y-145065030D02*
X151889936Y-145065030D01*
X123136585Y-140930000D02*
X127271613Y-145065030D01*
X114260000Y-140930000D02*
X123136585Y-140930000D01*
G04 #@! TO.N,Net-(RV5-Pad2)*
X148570001Y-85070001D02*
X147320000Y-83820000D01*
X148570001Y-92040001D02*
X148570001Y-85070001D01*
X140320002Y-100290000D02*
X148570001Y-92040001D01*
X111760000Y-100290000D02*
X140320002Y-100290000D01*
G04 #@! TO.N,Net-(SW2-Pad2)*
X184249999Y-69909999D02*
X186690000Y-72350000D01*
X166310001Y-69909999D02*
X184249999Y-69909999D01*
X162560000Y-73660000D02*
X166310001Y-69909999D01*
G04 #@! TO.N,Net-(U4-Pad12)*
X144799999Y-76180001D02*
X147320000Y-73660000D01*
X137140001Y-76180001D02*
X144799999Y-76180001D01*
X135890000Y-74930000D02*
X137140001Y-76180001D01*
G04 #@! TO.N,Net-(U4-Pad11)*
X142240000Y-71120000D02*
X147320000Y-71120000D01*
X138430000Y-74930000D02*
X142240000Y-71120000D01*
G04 #@! TO.N,Net-(U4-Pad10)*
X146050000Y-67310000D02*
X147320000Y-68580000D01*
X140970000Y-67310000D02*
X146050000Y-67310000D01*
G04 #@! TO.N,Net-(C6-Pad2)*
X137200000Y-125730000D02*
X137160000Y-125690000D01*
X139700000Y-125730000D02*
X137200000Y-125730000D01*
X134660000Y-125690000D02*
X134620000Y-125730000D01*
X137160000Y-125690000D02*
X134660000Y-125690000D01*
X134620000Y-125730000D02*
X134620000Y-129540000D01*
G04 #@! TO.N,Net-(C6-Pad1)*
X137160000Y-123190000D02*
X139700000Y-123190000D01*
X130810000Y-123190000D02*
X124460000Y-129540000D01*
X137160000Y-123190000D02*
X130810000Y-123190000D01*
X143490001Y-119399999D02*
X139700000Y-123190000D01*
X143490001Y-109929997D02*
X143490001Y-119399999D01*
X146719999Y-106699999D02*
X143490001Y-109929997D01*
X147920001Y-106699999D02*
X146719999Y-106699999D01*
X149190001Y-105429999D02*
X147920001Y-106699999D01*
X152300001Y-105429999D02*
X149190001Y-105429999D01*
X158670000Y-99060000D02*
X152300001Y-105429999D01*
D24*
G04 #@! TO.N,Net-(J7-Pad8)*
X139420000Y-61950000D02*
X139700000Y-62230000D01*
X139420000Y-54610000D02*
X139420000Y-61950000D01*
X139700000Y-63500000D02*
X135890000Y-67310000D01*
X139700000Y-62230000D02*
X139700000Y-63500000D01*
G04 #@! TO.N,Net-(J7-Pad7)*
X136920000Y-61990000D02*
X137160000Y-62230000D01*
X136920000Y-54610000D02*
X136920000Y-61990000D01*
X137160000Y-63500000D02*
X133350000Y-67310000D01*
X137160000Y-62230000D02*
X137160000Y-63500000D01*
G04 #@! TO.N,Net-(J7-Pad6)*
X134420000Y-62030000D02*
X134620000Y-62230000D01*
X134420000Y-54610000D02*
X134420000Y-62030000D01*
X134620000Y-63500000D02*
X130810000Y-67310000D01*
X134620000Y-62230000D02*
X134620000Y-63500000D01*
G04 #@! TO.N,Net-(J7-Pad5)*
X123190000Y-69454998D02*
X123190000Y-74930000D01*
X120199990Y-66464988D02*
X123190000Y-69454998D01*
X121123607Y-60204981D02*
X120199990Y-61128598D01*
X120199990Y-61128598D02*
X120199990Y-66464988D01*
X130054981Y-60204981D02*
X121123607Y-60204981D01*
X132080000Y-62230000D02*
X130054981Y-60204981D01*
X131920000Y-58339962D02*
X130054981Y-60204981D01*
X131920000Y-54610000D02*
X131920000Y-58339962D01*
G04 #@! TO.N,Net-(J7-Pad4)*
X121310008Y-60654990D02*
X120650000Y-61314998D01*
X127964990Y-60654990D02*
X121310008Y-60654990D01*
X129540000Y-62230000D02*
X127964990Y-60654990D01*
X120650000Y-61314998D02*
X120650000Y-63145002D01*
X120650000Y-63145002D02*
X123544998Y-66040000D01*
X124604999Y-73804999D02*
X125730000Y-74930000D01*
X124604999Y-67059997D02*
X124604999Y-73804999D01*
X123585002Y-66040000D02*
X124604999Y-67059997D01*
X123544998Y-66040000D02*
X123585002Y-66040000D01*
G04 #@! TO.N,Net-(J7-Pad3)*
X127144999Y-73804999D02*
X128270000Y-74930000D01*
X127144999Y-66580001D02*
X127144999Y-73804999D01*
X123334999Y-62770001D02*
X127144999Y-66580001D01*
X123334999Y-61689999D02*
X123334999Y-62770001D01*
X123919999Y-61104999D02*
X123334999Y-61689999D01*
X125874999Y-61104999D02*
X123919999Y-61104999D01*
X127000000Y-62230000D02*
X125874999Y-61104999D01*
G04 #@! TO.N,Net-(J7-Pad2)*
X129684999Y-73804999D02*
X130810000Y-74930000D01*
X129684999Y-67059997D02*
X129684999Y-73804999D01*
X124855002Y-62230000D02*
X129684999Y-67059997D01*
X124460000Y-62230000D02*
X124855002Y-62230000D01*
D23*
G04 #@! TO.N,Net-(RV3-Pad2)*
X113110001Y-61000001D02*
X111760000Y-59650000D01*
X113110001Y-67260003D02*
X113110001Y-61000001D01*
X124589998Y-78740000D02*
X113110001Y-67260003D01*
X147320000Y-78740000D02*
X124589998Y-78740000D01*
G04 #@! TO.N,Net-(RV4-Pad2)*
X139059997Y-86340001D02*
X144119998Y-81280000D01*
X144119998Y-81280000D02*
X147320000Y-81280000D01*
X118130001Y-86340001D02*
X139059997Y-86340001D01*
X111760000Y-79970000D02*
X118130001Y-86340001D01*
G04 #@! TO.N,Net-(C3-Pad2)*
X110409999Y-113190001D02*
X120650000Y-102950000D01*
X110409999Y-119259999D02*
X110409999Y-113190001D01*
X111760000Y-120610000D02*
X110409999Y-119259999D01*
G04 #@! TO.N,Net-(C9-Pad2)*
X114380000Y-120730000D02*
X114260000Y-120610000D01*
X120650000Y-120730000D02*
X114380000Y-120730000D01*
D24*
G04 #@! TO.N,Net-(J7-Pad9)*
X142240000Y-63500000D02*
X138430000Y-67310000D01*
X142240000Y-62230000D02*
X142240000Y-63500000D01*
X141920000Y-61910000D02*
X142240000Y-62230000D01*
X141920000Y-54610000D02*
X141920000Y-61910000D01*
G04 #@! TD*
M02*
